<svg width="82" height="48" xmlns="http://www.w3.org/2000/svg"><path d="M81.976 30.965c0-8.424-6.543-16.065-19.2-16.065H50.204V0h-10.72l-4.31 7.909L30.662 0H19.944v17.56c-2.159-2.04-5.067-3.164-8.211-3.164-3.203 0-6.173 1.173-8.362 3.304a11.076 11.076 0 0 0-2.475 3.603A11.15 11.15 0 0 0 0 25.711v.055c0 3.05 1.188 5.885 3.344 7.984 2.17 2.113 5.162 3.276 8.366 3.276 3.203 0 6.14-1.173 8.328-3.304a11.108 11.108 0 0 0 2.476-3.604c.496-1.16.784-2.385.868-3.65h5.943v-10.86l5.849 8.329 5.648-8.329v10.86h9.22V48h12.356C75.144 48 82 40.949 82 31.442l-.024-.477zm-66.534-5.199c0 1.977-1.274 3.825-3.71 3.825-2.463 0-3.792-1.842-3.792-3.88v-.055c0-1.977 1.316-3.88 3.77-3.88 2.444 0 3.731 1.873 3.731 3.935v.055zm55.004 5.563c0 4.063-3.176 5.832-6.941 5.832h-2.172V25.414h2.14c3.797 0 6.973 1.773 6.973 5.837v.078z" opacity=".2"/></svg>