<?xml version="1.0" encoding="UTF-8"?>
<svg width="82px" height="48px" viewBox="0 0 82 48" version="1.1" xmlns="http://www.w3.org/2000/svg" xmlns:xlink="http://www.w3.org/1999/xlink">
    <!-- Generator: Sketch 50.2 (55047) - http://www.bohemiancoding.com/sketch -->
    <title>omd</title>
    <desc>Created with Sketch.</desc>
    <defs></defs>
    <g id="Home" stroke="none" stroke-width="1" fill="none" fill-rule="evenodd" opacity="0.200000003">
        <g id="Home-Desktop" transform="translate(-358.000000, -2995.000000)" fill="#000000" fill-rule="nonzero">
            <g id="omd" transform="translate(358.000000, 2995.000000)">
                <path d="M81.9759638,30.9652039 C81.9759638,22.5409789 75.4327737,14.9004812 62.7764325,14.9004812 L50.2037825,14.9004812 L50.2037825,0 L39.4843325,0 L35.1736438,7.90869296 L30.6624138,0 L19.9439375,0 L19.9439375,17.5594793 C17.7850312,15.5198456 14.8769012,14.3963498 11.7325087,14.3963498 C8.52969125,14.3963498 5.5599075,15.5692823 3.37127625,17.7003253 C2.30773625,18.7347124 1.47512875,19.9479816 0.89579875,21.3032726 C0.30140125,22.6937878 0,24.1767349 0,25.7112658 L0,25.7659682 C0,28.8152962 1.187565,31.6507736 3.3436525,33.7498642 C5.51414125,35.8627071 8.5061675,37.0259773 11.7101125,37.0259773 C14.91293,37.0259773 17.8495038,35.852738 20.03793,33.722104 C21.101265,32.6860298 21.9342825,31.4737831 22.514125,30.1182876 C23.0097125,28.9588006 23.2984038,27.7333129 23.3815825,26.4687155 L29.3246863,26.4687155 L29.3246863,15.6082386 L35.1737975,23.9367088 L40.82247,15.6082386 L40.82247,26.4687155 L50.0412175,26.4687155 L50.0412175,48 L62.3980537,48 C75.14357,48 82,40.9489082 82,31.4420864 L81.9759638,30.9652039 Z M15.4415225,25.7659682 C15.4415225,27.7430264 14.1678575,29.5914572 11.7323038,29.5914572 C9.26887,29.5914572 7.940265,27.7485989 7.940265,25.7112658 L7.940265,25.6555409 L7.93980375,25.6555409 C7.93980375,23.6787894 9.25575,21.7760651 11.7097538,21.7760651 C14.15443,21.7760651 15.4413688,23.6489842 15.4413688,25.7112658 L15.4415225,25.7659682 Z M70.4463025,31.3292562 C70.4463025,35.3918061 67.2696225,37.1610974 63.5047463,37.1610974 L61.3332325,37.1610974 L61.3332325,25.4143901 L63.47251,25.4143901 C67.2696225,25.4143901 70.4463025,27.1874133 70.4463025,31.2508835 L70.4463025,31.3292562 Z" id="Shape"></path>
            </g>
        </g>
    </g>
</svg>