<?xml version="1.0" encoding="UTF-8"?>
<svg width="53px" height="50px" viewBox="0 0 53 50" version="1.1" xmlns="http://www.w3.org/2000/svg" xmlns:xlink="http://www.w3.org/1999/xlink">
    <!-- Generator: Sketch 50.2 (55047) - http://www.bohemiancoding.com/sketch -->
    <title>ipsos</title>
    <desc>Created with Sketch.</desc>
    <defs></defs>
    <g id="Home" stroke="none" stroke-width="1" fill="none" fill-rule="evenodd">
        <g id="Home-Desktop" transform="translate(-255.000000, -2994.000000)">
            <g id="ipsos" transform="translate(255.000000, 2994.000000)">
                <path d="M51.7977528,0.280898876 C54.1573034,16.8539326 53.258427,32.5842697 46.741573,49.8876404 L22.5842697,49.8876404 C23.4831461,47.1348315 24.494382,44.4382022 25.2808989,41.7977528 C26.9662921,41.5730337 28.0898876,40.7303371 28.0898876,39.2696629 C28.0898876,38.0337079 27.3033708,37.4719101 26.5168539,37.0224719 C26.6853933,36.2921348 26.8539326,35.3932584 27.0224719,34.6629213 L27.3595506,33.0337079 C27.3595506,33.0337079 26.1797753,21.2921348 25.9550562,21.011236 L24.8314607,10.0561798 C25.0561798,9.88764045 27.8651685,1.91011236 27.6404494,0.280898876 L51.7977528,0.280898876 Z M33.8202247,41.9101124 C36.5168539,41.9101124 38.258427,39.8876404 38.258427,37.3595506 C38.258427,34.7191011 36.4606742,32.9213483 33.8202247,32.9213483 C31.1235955,32.9213483 29.3258427,34.6629213 29.3258427,37.3595506 C29.3258427,40 31.1797753,41.9101124 33.8202247,41.9101124 Z M44.7752809,34.7752809 L44.7752809,33.0898876 C44.1011236,32.9775281 43.4831461,32.9213483 42.8651685,32.9213483 C40.9550562,32.9213483 39.494382,33.7640449 39.494382,35.2247191 C39.494382,36.5168539 40.6741573,37.4719101 41.6292135,37.9775281 C42.6404494,38.5393258 43.3707865,38.8764045 43.3707865,39.3820225 C43.3707865,39.9438202 42.8089888,40.2247191 42.1910112,40.2247191 C41.2921348,40.2247191 40.2808989,39.8876404 39.6629213,39.6629213 L39.6629213,41.4606742 C40.505618,41.6853933 41.1797753,41.8539326 42.1348315,41.8539326 C44.2696629,41.8539326 45.6741573,40.9550562 45.6741573,39.3258427 C45.6741573,37.8651685 44.4382022,37.1910112 43.5393258,36.6853933 C42.5842697,36.1235955 41.741573,35.7303371 41.741573,35.2247191 C41.741573,34.7752809 42.3595506,34.5505618 43.258427,34.5505618 C43.7640449,34.5505618 44.2696629,34.7191011 44.7752809,34.7752809 Z" id="Combined-Shape" fill="#C7C7C7" fill-rule="nonzero"></path>
                <path d="M22.2473744,35.2526086 C22.2472522,35.2620127 22.247191,35.2714429 22.247191,35.2808989 C22.247191,36.5730337 23.4269663,37.5280899 24.3820225,38.0337079 C25.3766198,38.5862619 26.0994859,38.921431 26.1230043,39.4133794 C26.1024729,39.9542725 25.5501912,40.2247191 24.9438202,40.2247191 C24.0449438,40.2247191 23.0337079,39.8876404 22.4157303,39.6629213 L22.4157303,41.4606742 L22.4157303,41.5168539 C23.258427,41.741573 23.9325843,41.9101124 24.8876404,41.9101124 C25.1334734,41.9101124 25.3696218,41.898193 25.5950564,41.8746116 C24.8140106,44.4905261 23.9227745,47.1615358 22.9213483,49.8876404 L0.449438202,49.8876404 L0.449438202,0.168539326 L27.9775281,0.280898876 C28.2022472,1.91011236 28.3146067,2.86516854 28.4831461,4.49438202 C28.4831461,4.49438202 28.0337079,5.2247191 28.0898876,5.61797753 L28.2022472,13.8764045 L28.0337079,30.3932584 C27.9775281,31.2359551 27.8651685,32.3033708 27.6966292,33.1460674 C27.0786517,33.0898876 26.2359551,32.9213483 25.6179775,32.9213483 C23.7078652,32.9213483 22.247191,33.7640449 22.247191,35.2247191 C22.247191,35.2340331 22.2472523,35.2433296 22.2473744,35.2526086 Z M7.24719101,41.6292135 L10.2247191,41.6292135 C10.0561798,40.505618 9.88764045,38.7078652 9.88764045,37.4719101 L9.88764045,33.1460674 C9.88764045,31.8539326 9.94382022,30.6741573 9.94382022,29.8314607 L6.96629213,29.8314607 C7.19101124,31.0674157 7.30337079,32.3595506 7.30337079,33.988764 L7.30337079,38.5955056 C7.30337079,39.9438202 7.30337079,40.6741573 7.24719101,41.6292135 Z M14.7752809,45.2247191 C14.6067416,43.9325843 14.6067416,42.5280899 14.6067416,42.0786517 L14.6067416,41.0674157 C15.2247191,41.4044944 15.8426966,41.9101124 17.247191,41.9101124 C19.5505618,41.9101124 21.1235955,40.1123596 21.1235955,37.5842697 C21.1235955,34.8876404 19.494382,32.9213483 17.1348315,32.9213483 C15.505618,32.9213483 14.8314607,33.7078652 14.2696629,34.3258427 C14.1573034,33.8764045 14.1011236,33.4831461 13.988764,33.1460674 L11.8539326,33.3146067 C12.1348315,34.7752809 12.3595506,36.1235955 12.3595506,37.5842697 L12.3595506,41.0674157 C12.3595506,42.3033708 12.1348315,44.6067416 12.0224719,45.3932584 L14.7752809,45.2247191 Z" id="Combined-Shape" fill="#AAAAAA" fill-rule="nonzero"></path>
                <path d="M28.0337079,30.3932584 C27.3033708,30.3932584 26.5730337,30.3370787 25.7303371,30.3370787 C25.1123596,30.1123596 24.2696629,30.3370787 23.5393258,30.3370787 C23.2022472,30.3370787 22.9775281,30.0561798 22.6404494,30.2247191 C22.4157303,30.2808989 20.7865169,30.3370787 20.6179775,30.1685393 C21.3483146,29.2134831 24.5505618,29.7191011 25.0561798,28.7078652 C25.9550562,28.2022472 25.9550562,27.3595506 26.1235955,26.5730337 C26.6853933,26.2921348 26.4044944,25.9550562 26.5168539,25.6179775 C26.4044944,25.2247191 26.4606742,24.6629213 26.5730337,24.3258427 L26.1797753,24.7752809 C26.011236,24.8314607 25.8426966,24.9438202 25.6741573,24.6629213 C26.0674157,24.0449438 25.2808989,24.1573034 25.2808989,23.7640449 C25.8988764,23.4269663 25.3932584,23.1460674 25.505618,22.6966292 C25.1123596,22.8651685 25.1123596,23.3146067 24.7191011,23.3146067 C24.2696629,23.0337079 24.8876404,22.4157303 24.6067416,22.1348315 C24.494382,22.247191 24.1573034,21.9662921 24.0449438,22.1348315 C24.3258427,22.3033708 24.2696629,22.8089888 24.2134831,23.0337079 C24.0449438,23.0898876 23.8764045,23.0898876 23.7640449,22.8651685 C23.7640449,22.8651685 23.7078652,23.0898876 23.4269663,23.1460674 C23.1460674,22.9775281 23.5955056,22.5280899 23.4269663,22.3595506 C23.258427,22.4719101 23.258427,22.5280899 23.0337079,22.5280899 C22.8089888,22.4157303 22.8651685,22.0224719 22.8651685,21.7977528 C22.6966292,21.8539326 22.752809,21.9101124 22.5842697,22.0786517 C22.4157303,22.1910112 22.1348315,22.3595506 21.5168539,22.1348315 C21.9101124,21.2921348 22.4157303,21.5730337 22.8651685,21.3483146 C22.9775281,21.1235955 23.3707865,20.7865169 23.0898876,20.5617978 C22.4157303,20.6741573 22.4157303,21.4044944 21.5730337,21.2921348 C21.2921348,20.6741573 22.247191,20.3932584 21.9101124,20.1123596 C21.9101124,20.1123596 21.2921348,19.7752809 21.2921348,19.9438202 C21.2921348,20.5617978 21.2359551,21.011236 20.7303371,21.1797753 C20.505618,21.0674157 20.505618,20.6741573 20.505618,20.4494382 C20.6741573,20 20.1123596,20.2247191 20.1685393,19.5505618 C20.0561798,19.6067416 19.7752809,20.1123596 19.4382022,19.9438202 C19.2696629,19.8876404 19.6067416,19.2696629 19.6067416,19.2696629 C19.3820225,19.1011236 18.988764,19.1573034 18.7640449,18.988764 C18.6516854,18.5955056 19.2134831,18.6516854 19.3820225,18.3707865 C18.988764,17.9775281 18.7640449,18.6516854 18.3707865,18.3707865 C18.3707865,18.3146067 18.7078652,18.2022472 18.6516854,17.9213483 C18.5393258,17.752809 17.9775281,18.0337079 17.9775281,17.8089888 C17.9213483,17.6404494 18.4269663,17.3595506 18.5955056,17.247191 L18.3146067,17.1910112 C17.752809,17.3595506 17.5280899,17.1348315 18.2022472,16.7977528 C17.5842697,16.1797753 18.5955056,16.3483146 18.8764045,16.1797753 C18.0337079,16.011236 17.5842697,15.5617978 17.8089888,15.2808989 C18.0337079,15 18.8202247,15.3932584 18.8202247,15.3932584 C18.8202247,15.3932584 18.4831461,15 18.258427,14.6629213 C18.0337079,14.2696629 19.1573034,14.3258427 19.3820225,13.8202247 L19.1573034,13.7640449 C18.9325843,13.7640449 19.0449438,13.4269663 18.7078652,13.8764045 C18.5393258,14.1573034 18.1460674,14.0449438 17.8651685,13.8764045 C17.8651685,13.3707865 18.258427,13.0898876 18.7078652,12.8651685 C19.4382022,12.6966292 19.2696629,12.5842697 19.6629213,12.5280899 C19.6629213,12.5280899 19.4382022,12.3033708 19.3258427,12.3595506 C19.1573034,12.4157303 19.0449438,12.4157303 19.0449438,12.4157303 C18.3146067,12.5280899 17.8089888,12.5280899 17.3033708,12.1348315 C17.3595506,11.7977528 17.8651685,11.8539326 18.1460674,11.7977528 C17.9213483,11.5730337 17.9213483,11.2359551 17.9775281,11.1235955 C18.258427,11.0674157 18.6516854,11.6853933 18.8202247,11.7977528 C18.8202247,11.7977528 18.6516854,11.3483146 18.9325843,11.1235955 C19.3258427,11.2921348 19.1573034,11.9662921 19.7752809,11.9101124 C19.2696629,11.2359551 19.4382022,11.1235955 20.1685393,11.4606742 C20.2808989,11.1797753 19.5505618,11.0674157 19.494382,10.8988764 C19.3820225,10.7303371 19.9438202,10.505618 19.9438202,10.505618 C19.9438202,10.505618 18.9325843,10.3370787 18.7078652,9.5505618 C18.6516854,9.21348315 20.0561798,9.5505618 20.505618,10.2808989 C20.8988764,10.3370787 21.011236,10.2247191 21.3483146,10.1123596 C21.0674157,9.88764045 20.8426966,9.83146067 20.6741573,9.26966292 L20.505618,9.38202247 C20.505618,9.38202247 20.3932584,9.49438202 20.0561798,9.38202247 C19.7752809,9.26966292 19.494382,8.98876404 19.494382,8.70786517 C19.7752809,8.59550562 20.3370787,8.48314607 20.5617978,8.87640449 L20.6179775,8.98876404 C20.6179775,9.04494382 20.7303371,9.04494382 20.7303371,8.98876404 C21.1797753,8.87640449 21.5730337,9.15730337 22.0786517,8.93258427 C21.9662921,8.70786517 22.0224719,8.65168539 21.6853933,8.48314607 C21.5168539,8.59550562 21.4606742,8.59550562 21.2359551,8.59550562 C20.6741573,8.48314607 20.2808989,8.14606742 20.0561798,7.64044944 C20.1685393,7.52808989 20.3370787,7.75280899 20.5617978,7.64044944 C21.011236,7.69662921 21.4606742,7.75280899 21.5168539,8.20224719 C21.741573,8.08988764 21.8539326,7.86516854 22.4157303,7.80898876 C21.9101124,7.69662921 21.6292135,7.69662921 21.5730337,7.30337079 C21.9101124,6.91011236 22.4719101,7.13483146 22.9213483,7.47191011 C22.9775281,7.47191011 22.8089888,7.30337079 22.8651685,7.30337079 L22.5842697,6.96629213 C22.4157303,6.74157303 22.5280899,6.46067416 22.752809,6.29213483 C22.8651685,6.29213483 23.0337079,6.51685393 23.0898876,6.79775281 C23.5955056,7.35955056 23.1460674,6.29213483 23.8202247,6.23595506 C24.2134831,6.68539326 23.6516854,6.79775281 23.6516854,7.02247191 C23.7078652,7.13483146 23.8202247,7.24719101 24.1011236,7.30337079 C24.1573034,7.02247191 24.3820225,6.85393258 24.3820225,6.51685393 C24.1573034,6.12359551 24.3820225,5.50561798 24.9438202,5.33707865 C25.4494382,5.84269663 24.4382022,6.40449438 25.1123596,6.51685393 C25.7303371,6.23595506 25.0561798,5.50561798 25.7865169,5.16853933 C26.011236,5.61797753 25.7303371,5.84269663 25.8426966,6.01123596 C25.8988764,6.12359551 26.1797753,6.17977528 26.2921348,6.06741573 C25.9550562,5.78651685 26.1797753,5.28089888 26.2921348,5 C26.5168539,4.94382022 26.6292135,5.4494382 26.5730337,5.6741573 C27.1910112,5.28089888 26.6292135,5.95505618 27.4157303,5.8988764 C27.5842697,5.50561798 26.9101124,5.39325843 27.1910112,4.7752809 C27.9213483,4.60674157 27.8089888,5.11235955 27.8089888,5.4494382 L28.0337079,5.78651685 L28.258427,5.6741573 C28.258427,5.6741573 28.0898876,5.56179775 28.0337079,5.11235955 C27.9775281,4.71910112 28.5393258,4.43820225 28.5393258,4.43820225 L28.5393258,4.49438202 C29.4382022,12.9775281 29.3258427,21.5730337 28.0337079,30 L28.0337079,30.3932584 Z" id="Shape" fill="#C7C7C7" fill-rule="nonzero"></path>
                <path d="M27.6404494,33.0898876 C27.5280899,33.6516854 27.4157303,34.2134831 27.3033708,34.7191011 L27.6404494,33.0898876 Z" id="Shape" fill="#FFFFFF" fill-rule="nonzero"></path>
                <path d="M33.8202247,41.9101124 C36.5168539,41.9101124 38.258427,39.8876404 38.258427,37.3595506 C38.258427,34.7191011 36.4606742,32.9213483 33.8202247,32.9213483 C31.1235955,32.9213483 29.3258427,34.6629213 29.3258427,37.3595506 C29.3258427,40 31.1797753,41.9101124 33.8202247,41.9101124" id="Shape" fill="#FFFFFF" fill-rule="nonzero"></path>
                <path d="M44.7752809,34.7752809 C44.2696629,34.7191011 43.7640449,34.5505618 43.258427,34.5505618 C42.3595506,34.5505618 41.741573,34.7752809 41.741573,35.2247191 C41.741573,35.7303371 42.5842697,36.1235955 43.5393258,36.6853933 C44.4382022,37.1910112 45.6741573,37.8651685 45.6741573,39.3258427 C45.6741573,40.9550562 44.2696629,41.8539326 42.1348315,41.8539326 C41.1797753,41.8539326 40.505618,41.6853933 39.6629213,41.4606742 L39.6629213,39.6629213 C40.2808989,39.8876404 41.2921348,40.2247191 42.1910112,40.2247191 C42.8089888,40.2247191 43.3707865,39.9438202 43.3707865,39.3820225 C43.3707865,38.8764045 42.6404494,38.5393258 41.6292135,37.9775281 C40.6741573,37.4719101 39.494382,36.5168539 39.494382,35.2247191 C39.494382,33.7640449 40.9550562,32.9213483 42.8651685,32.9213483 C43.4831461,32.9213483 44.1011236,32.9775281 44.7752809,33.0898876 L44.7752809,34.7752809 Z" id="Shape" fill="#FFFFFF" fill-rule="nonzero"></path>
                <path d="M31.6292135,37.3595506 C31.6292135,35.7865169 32.3595506,34.7191011 33.8764045,34.7191011 C35.3370787,34.7191011 36.0674157,35.6741573 36.0674157,37.3595506 C36.0674157,38.8764045 35.3370787,40.0561798 33.8764045,40.0561798 C32.4157303,40.0561798 31.6292135,38.9325843 31.6292135,37.3595506" id="Shape" fill="#C7C7C7" fill-rule="nonzero"></path>
                <path d="M24.494382,35.2247191 C24.494382,35.7303371 25.3370787,36.1235955 26.2921348,36.6853933 C26.4606742,36.7977528 26.6292135,36.9101124 26.8539326,37.0224719 C27.0224719,36.2921348 27.1910112,35.505618 27.3595506,34.7752809 C26.8539326,34.7191011 26.5730337,34.6067416 26.0674157,34.6067416 C25.1123596,34.6067416 24.494382,34.7752809 24.494382,35.2247191" id="Shape" fill="#AAAAAA" fill-rule="nonzero"></path>
                <path d="M22.247191,5.6741573 C22.3595506,5.50561798 22.5842697,5.84269663 22.5842697,5.84269663" id="Shape" fill="#3B4395" fill-rule="nonzero"></path>
                <path d="M7.24719101,41.6292135 C7.30337079,40.6741573 7.30337079,39.9438202 7.30337079,38.5955056 L7.30337079,33.988764 C7.30337079,32.3595506 7.19101124,31.0674157 6.96629213,29.8314607 L9.94382022,29.8314607 C9.94382022,30.6741573 9.88764045,31.8539326 9.88764045,33.1460674 L9.88764045,37.4719101 C9.88764045,38.7078652 10.0561798,40.505618 10.2247191,41.6292135 L7.24719101,41.6292135 Z" id="Shape" fill="#FFFFFF" fill-rule="nonzero"></path>
                <path d="M14.7752809,45.2247191 C14.6067416,43.9325843 14.6067416,42.5280899 14.6067416,42.0786517 L14.6067416,41.0674157 C15.2247191,41.4044944 15.8426966,41.9101124 17.247191,41.9101124 C19.5505618,41.9101124 21.1235955,40.1123596 21.1235955,37.5842697 C21.1235955,34.8876404 19.494382,32.9213483 17.1348315,32.9213483 C15.505618,32.9213483 14.8314607,33.7078652 14.2696629,34.3258427 C14.1573034,33.8764045 14.1011236,33.4831461 13.988764,33.1460674 L11.8539326,33.3146067 C12.1348315,34.7752809 12.3595506,36.1235955 12.3595506,37.5842697 L12.3595506,41.0674157 C12.3595506,42.3033708 12.1348315,44.6067416 12.0224719,45.3932584 L14.7752809,45.2247191 Z M14.4382022,37.5842697 C14.4382022,35.8988764 15.1123596,34.7191011 16.5730337,34.7191011 C17.9213483,34.7191011 18.8202247,35.8988764 18.8202247,37.5842697 C18.8202247,39.0449438 18.0898876,40.0561798 16.6853933,40.0561798 C15.2247191,40.0561798 14.4382022,39.2134831 14.4382022,37.5842697 Z" id="Shape" fill="#FFFFFF" fill-rule="nonzero"></path>
                <path d="M34.4382022,15.4494382 C33.6516854,15.6179775 32.5280899,15.1123596 32.6966292,15 C33.0898876,14.7191011 33.988764,14.2696629 34.8314607,14.5505618 C35,14.6067416 35.0561798,14.7752809 35.0561798,14.9438202 C35.0561798,15.4494382 34.7191011,15.4494382 34.4382022,15.4494382 M37.0786517,15.9550562 C36.6853933,15.3932584 35.9550562,14.6629213 36.5730337,13.9325843 C36.9101124,13.6516854 37.0224719,13.4831461 37.0224719,13.1460674 C37.1348315,11.9101124 37.0786517,11.4044944 36.9101124,10.7303371 C36.9101124,10.6741573 37.0786517,10.7303371 37.1348315,10.505618 C37.247191,9.88764045 36.9101124,9.7752809 36.9101124,9.7752809 C37.1348315,9.5505618 37.1348315,8.70786517 36.741573,8.76404494 C36.9662921,8.42696629 36.7977528,7.80898876 36.4044944,7.97752809 C36.4044944,7.97752809 36.5730337,7.86516854 36.5730337,7.58426966 C36.5168539,7.07865169 35.7865169,7.58426966 35.9550562,7.24719101 C36.0674157,7.07865169 35.6179775,6.46067416 35.4494382,6.91011236 C35.3370787,6.85393258 35.5617978,6.51685393 35.3370787,6.46067416 C35.2247191,6.46067416 35.0561798,6.57303371 34.8876404,6.68539326 C34.8314607,6.46067416 35.0561798,6.40449438 34.7752809,6.12359551 C34.4382022,5.8988764 34.4382022,6.23595506 34.2134831,6.34831461 C33.7640449,6.23595506 34.7752809,6.01123596 33.8764045,5.61797753 C33.6516854,6.17977528 33.6516854,5.78651685 33.5393258,5.6741573 C33.4831461,5.61797753 33.3146067,5.78651685 33.0898876,6.06741573 C33.2022472,5.6741573 33.5393258,5.2247191 33.0898876,5.33707865 C32.5842697,5.56179775 32.8651685,5.28089888 32.8651685,5.2247191 C33.3146067,5 32.4719101,4.5505618 32.4719101,5.05617978 C32.4719101,5.39325843 31.741573,5.73033708 31.9101124,5.28089888 C32.0224719,4.7752809 32.6966292,5.56179775 32.1348315,4.60674157 C31.7977528,5 31.5168539,5.28089888 31.4606742,5.39325843 C31.1797753,6.46067416 31.3483146,5.50561798 31.0674157,5.4494382 C31.4606742,5.2247191 31.9101124,4.7752809 31.741573,4.43820225 C31.3483146,4.38202247 30.4494382,5.05617978 31.011236,5.11235955 C30.9550562,5.33707865 30.6179775,5.56179775 30.4494382,5.2247191 C30.7865169,5.11235955 31.3483146,4.04494382 30.6179775,4.38202247 C30.5617978,4.43820225 30.5617978,4.66292135 30.4494382,4.83146067 C30.2808989,4.66292135 30.3932584,4.43820225 30.3370787,4.3258427 C29.7752809,3.82022472 30,5.16853933 30,5.4494382 C29.2696629,5 29.9438202,5.11235955 29.7752809,4.38202247 C29.1573034,4.49438202 29.0449438,4.7752809 29.1011236,5.4494382 C29.0449438,5.61797753 28.8764045,6.01123596 28.7640449,5.50561798 C29.1011236,5.05617978 29.0449438,4.43820225 28.4831461,4.43820225 C29.3820225,12.9213483 29.3258427,21.4606742 28.0337079,29.8876404 L27.9775281,30.3932584 C28.6516854,30.3932584 29.5505618,30.1123596 30.2247191,30.1123596 C32.1910112,30.1685393 32.1348315,30.4494382 35.3932584,30.3932584 C36.1235955,30.3370787 36.3483146,30.1685393 36.5730337,30.2247191 C36.3483146,29.2134831 34.7191011,29.7752809 33.8764045,29.494382 C32.4719101,29.3820225 32.247191,28.4831461 31.7977528,27.8651685 C31.5730337,27.5280899 31.2921348,27.0786517 31.2921348,26.4606742 C31.1797753,25.6741573 31.3483146,25.2808989 31.2921348,24.5505618 C31.3483146,23.988764 31.9662921,24.1011236 32.3595506,24.1573034 C33.5955056,24.2696629 35.6179775,24.1011236 36.1797753,23.9325843 C36.9662921,23.7078652 36.9662921,23.2022472 36.4606742,22.4719101 C36.3483146,22.1348315 36.3483146,21.9101124 36.5168539,21.5730337 C36.741573,21.3483146 37.0224719,21.1797753 36.7977528,20.8426966 C36.7977528,20.8426966 35.0561798,20.4494382 36.2359551,20.2247191 C37.4719101,20 37.0786517,19.494382 37.0786517,19.494382 C37.0786517,19.494382 36.8539326,18.988764 36.6853933,18.5955056 C36.5168539,18.3146067 37.6966292,18.2022472 37.8651685,17.752809 C38.3146067,17.247191 37.4157303,16.4044944 37.0786517,15.9550562" id="Shape" fill="#AAAAAA" fill-rule="nonzero"></path>
                <path d="M14.4382022,37.5842697 C14.4382022,35.8988764 15.1123596,34.7191011 16.5730337,34.7191011 C17.9213483,34.7191011 18.8202247,35.8988764 18.8202247,37.5842697 C18.8202247,39.0449438 18.0898876,40.0561798 16.6853933,40.0561798 C15.2247191,40.0561798 14.4382022,39.2134831 14.4382022,37.5842697 Z" id="Shape" fill="#AAAAAA"></path>
            </g>
        </g>
    </g>
</svg>