<?xml version="1.0" encoding="UTF-8"?>
<svg width="183px" height="34px" viewBox="0 0 183 34" version="1.1" xmlns="http://www.w3.org/2000/svg" xmlns:xlink="http://www.w3.org/1999/xlink">
    <!-- Generator: Sketch 50.2 (55047) - http://www.bohemiancoding.com/sketch -->
    <title>fastuna</title>
    <desc>Created with Sketch.</desc>
    <defs>
        <polygon id="path-1" points="0.208610169 0.433932203 12.4952881 0.433932203 12.4952881 29.0371525 0.208610169 29.0371525"></polygon>
        <polygon id="path-3" points="0 0.0328474576 158.163966 0.0328474576 158.163966 29.9315254 0 29.9315254"></polygon>
    </defs>
    <g id="Home" stroke="none" stroke-width="1" fill="none" fill-rule="evenodd">
        <g id="Home-Desktop" transform="translate(-662.000000, -3002.000000)">
            <g id="fastuna" transform="translate(662.000000, 3002.000000)">
                <g id="Group-3" transform="translate(44.949153, 0.000000)">
                    <mask id="mask-2" fill="white">
                        <use xlink:href="#path-1"></use>
                    </mask>
                    <g id="Clip-2"></g>
                    <path d="M3.0899661,8.82674576 L3.0899661,9.02671186 L0.208610169,9.02671186 L0.208610169,13.9889831 L3.0899661,13.9889831 L3.0899661,29.0371525 L8.25277966,29.0371525 L8.25277966,13.9889831 L12.4952881,13.9889831 L12.4952881,9.02671186 L8.25277966,9.02671186 L8.25277966,8.82674576 C8.25277966,6.34532203 9.65311864,5.22447458 12.4952881,5.42501695 L12.4952881,0.462169492 C6.2519661,0.102 3.0899661,3.18332203 3.0899661,8.82674576" id="Fill-1" fill="#C7C7C7" mask="url(#mask-2)"></path>
                </g>
                <path d="M72.6522373,23.1142373 C71.6114915,24.1549831 70.290678,24.6753559 68.6903729,24.6753559 C67.0894915,24.6753559 65.768678,24.1549831 64.7279322,23.1142373 C63.6871864,22.0337288 63.1673898,20.6725763 63.1673898,19.0325085 C63.1673898,17.3912881 63.6871864,16.0301356 64.7279322,14.9899661 C65.768678,13.9094576 67.0894915,13.3890847 68.6903729,13.3890847 C70.290678,13.3890847 71.6114915,13.9094576 72.6522373,14.9899661 C73.733322,16.0301356 74.2531186,17.3912881 74.2531186,19.0325085 C74.2531186,20.6725763 73.733322,22.0337288 72.6522373,23.1142373 Z M74.2531186,11.3882712 C72.6925763,9.42722034 70.5309831,8.46657627 67.7297288,8.46657627 C65.048339,8.46657627 62.7668814,9.50674576 60.8461695,11.5478983 C58.9652203,13.5890508 58.0045763,16.0704746 58.0045763,19.0325085 C58.0045763,21.9939661 58.9652203,24.5151525 60.8461695,26.5563051 C62.7668814,28.5974576 65.048339,29.5978644 67.7297288,29.5978644 C70.5309831,29.5978644 72.6925763,28.6372203 74.2531186,26.6767458 L74.2531186,29.0371525 L79.4159322,29.0371525 L79.4159322,9.02671186 L74.2531186,9.02671186 L74.2531186,11.3882712 Z" id="Fill-4" fill="#C7C7C7"></path>
                <path d="M92.3434237,16.9112542 C90.3022712,16.3908814 88.7013898,15.7904068 88.7013898,14.7098983 C88.7013898,13.7089153 89.7017966,13.068678 91.0231864,13.068678 C92.5030508,13.068678 93.5841356,13.7492542 94.2243729,15.1098305 L98.6265085,12.7085085 C97.0653898,9.98735593 94.2647119,8.46657627 91.0231864,8.46657627 C88.8615932,8.46657627 87.0607458,9.02671186 85.5797288,10.187322 C84.1390508,11.3075932 83.4187119,12.8687119 83.4187119,14.8297627 C83.4187119,18.9921695 87.1408475,20.2328814 90.1023051,20.9929831 C92.1434576,21.5133559 93.744339,22.1138305 93.744339,23.194339 C93.744339,24.3549492 92.8240339,24.9150847 90.9828475,24.9150847 C88.9416949,24.9150847 87.6606441,24.0351186 87.0607458,22.3137966 L82.5785085,24.8349831 C84.0589492,27.9964068 86.8602034,29.5978644 90.9828475,29.5978644 C93.2643051,29.5978644 95.1850169,29.0371525 96.7052203,27.9566441 C98.266339,26.8363729 99.0270169,25.2354915 99.0270169,23.194339 C99.0667797,18.9120678 95.2645424,17.5111525 92.3434237,16.9112542" id="Fill-5" fill="#C7C7C7"></path>
                <path d="M109.061627,3.42362712 L103.898814,4.98474576 L103.898814,9.02671186 L100.416983,9.02671186 L100.416983,13.9889831 L103.898814,13.9889831 L103.898814,22.3137966 C103.898814,27.7970169 106.500102,29.8381695 113.583627,29.0371525 L113.583627,24.3549492 C110.622746,24.5151525 109.061627,24.4748136 109.061627,22.3137966 L109.061627,13.9889831 L113.583627,13.9889831 L113.583627,9.02671186 L109.061627,9.02671186 L109.061627,3.42362712" id="Fill-6" fill="#C7C7C7"></path>
                <path d="M175.396203,23.1142373 C174.356034,24.1549831 173.03522,24.6753559 171.434339,24.6753559 C169.833458,24.6753559 168.512644,24.1549831 167.471898,23.1142373 C166.432305,22.0337288 165.911356,20.6725763 165.911356,19.0325085 C165.911356,17.3912881 166.432305,16.0301356 167.471898,14.9899661 C168.512644,13.9094576 169.833458,13.3890847 171.434339,13.3890847 C173.03522,13.3890847 174.356034,13.9094576 175.396203,14.9899661 C176.477288,16.0301356 176.997085,17.3912881 176.997085,19.0325085 C176.997085,20.6725763 176.477288,22.0337288 175.396203,23.1142373 Z M176.997085,9.02671186 L176.997085,11.3882712 C175.436542,9.42722034 173.275525,8.46657627 170.473695,8.46657627 C167.792881,8.46657627 165.511424,9.50674576 163.590712,11.5478983 C161.709186,13.5890508 160.748542,16.0704746 160.748542,19.0325085 C160.748542,21.9939661 161.709186,24.5151525 163.590712,26.5563051 C165.511424,28.5974576 167.792881,29.5978644 170.473695,29.5978644 C173.275525,29.5978644 175.436542,28.6372203 176.997085,26.6767458 L176.997085,29.0371525 L182.159898,29.0371525 L182.159898,9.02671186 L176.997085,9.02671186 Z" id="Fill-7" fill="#C7C7C7"></path>
                <path d="M130.753627,20.2847458 C130.753627,26.4629492 122.389051,26.4629492 122.389051,20.2847458 L122.389051,9.02671186 L117.226237,9.02671186 L117.226237,19.7591864 C117.226237,32.8514915 135.915864,32.8514915 135.915864,19.7591864 L135.915864,9.02671186 L130.753627,9.02671186 L130.753627,20.2847458" id="Fill-8" fill="#C7C7C7"></path>
                <g id="Group-12" transform="translate(0.000000, 4.033898)">
                    <mask id="mask-4" fill="white">
                        <use xlink:href="#path-3"></use>
                    </mask>
                    <g id="Clip-10"></g>
                    <path d="M139.473763,14.2713559 L139.473763,25.0032542 L144.636,25.0032542 L144.636,13.7457966 C144.636,7.56701695 153.001153,7.56701695 153.001153,13.7457966 L153.001153,25.0032542 L158.163966,25.0032542 L158.163966,14.2713559 C158.163966,1.17847458 139.473763,1.17847458 139.473763,14.2713559" id="Fill-9" fill="#C7C7C7" mask="url(#mask-4)"></path>
                    <path d="M21.5946102,4.99281356 L18.7311186,0.0328474576 L13.000678,0.0328474576 L15.8641695,4.99281356 L10.0052203,4.99281356 C4.47935593,4.99281356 0,9.47216949 0,14.9980339 C0,20.5238983 4.47935593,25.0032542 10.0052203,25.0032542 L13.1199661,25.0032542 L15.9851864,29.9661017 L21.7156271,29.9661017 L17.4172203,22.5212542 L21.7127458,15.0804407 L15.9823051,15.0804407 L13.1188136,20.0409831 L10.0052203,20.0409831 C7.22010169,20.0409831 4.96284746,17.7831525 4.96284746,14.9980339 C4.96284746,12.2129153 7.22010169,9.95508475 10.0052203,9.95508475 L27.5532542,9.95508475 L23.1626441,17.5607119 L28.8930847,17.5607119 L36.1489153,4.99281356 L21.5946102,4.99281356" id="Fill-11" fill="#C7C7C7" mask="url(#mask-4)"></path>
                </g>
            </g>
        </g>
    </g>
</svg>