<svg width="53" height="50" xmlns="http://www.w3.org/2000/svg"><g fill="none" fill-rule="evenodd"><path d="M51.798.28c2.36 16.574 1.46 32.304-5.056 49.608H22.584c.9-2.753 1.91-5.45 2.697-8.09 1.685-.225 2.809-1.068 2.809-2.528 0-1.236-.787-1.798-1.573-2.248.168-.73.337-1.629.505-2.36l.338-1.628s-1.18-11.742-1.405-12.023l-1.124-10.955c.225-.168 3.034-8.146 2.81-9.775h24.157zM33.82 41.91c2.697 0 4.438-2.022 4.438-4.55 0-2.64-1.797-4.439-4.438-4.439-2.696 0-4.494 1.742-4.494 4.439 0 2.64 1.854 4.55 4.494 4.55zm10.955-7.135V33.09a11.469 11.469 0 0 0-1.91-.169c-1.91 0-3.37.843-3.37 2.304 0 1.292 1.18 2.247 2.134 2.753 1.011.561 1.742.898 1.742 1.404 0 .562-.562.843-1.18.843-.899 0-1.91-.337-2.528-.562v1.798c.843.224 1.517.393 2.472.393 2.135 0 3.54-.899 3.54-2.528 0-1.46-1.237-2.135-2.136-2.64-.955-.562-1.797-.956-1.797-1.461 0-.45.618-.674 1.516-.674.506 0 1.012.168 1.517.224z" fill="#C7C7C7" fill-rule="nonzero"/><path d="M22.247 35.253v.028c0 1.292 1.18 2.247 2.135 2.753.995.552 1.717.887 1.741 1.38-.02.54-.573.81-1.18.81-.898 0-1.91-.336-2.527-.561v1.854c.842.225 1.517.393 2.472.393.245 0 .482-.012.707-.035a136.564 136.564 0 0 1-2.674 8.013H.45V.168l27.529.113c.224 1.63.337 2.584.505 4.213 0 0-.45.73-.393 1.124l.112 8.258-.168 16.517c-.056.843-.169 1.91-.337 2.753-.618-.056-1.461-.225-2.079-.225-1.91 0-3.37.843-3.37 2.304v.028zm-15 6.376h2.978c-.169-1.123-.337-2.921-.337-4.157v-4.326c0-1.292.056-2.472.056-3.315H6.966c.225 1.236.337 2.529.337 4.158v4.607c0 1.348 0 2.078-.056 3.033zm7.528 3.596c-.168-1.292-.168-2.697-.168-3.146v-1.012c.618.337 1.236.843 2.64.843 2.304 0 3.877-1.798 3.877-4.326 0-2.696-1.63-4.663-3.99-4.663-1.628 0-2.303.787-2.864 1.405-.113-.45-.169-.843-.281-1.18l-2.135.169c.28 1.46.506 2.809.506 4.27v3.482c0 1.236-.225 3.54-.338 4.326l2.753-.168z" fill="#AAA" fill-rule="nonzero"/><path d="M28.034 30.393c-.73 0-1.461-.056-2.304-.056-.618-.225-1.46 0-2.19 0-.338 0-.562-.28-.9-.112-.224.056-1.853.112-2.022-.056.73-.956 3.933-.45 4.438-1.461.9-.506.9-1.348 1.068-2.135.561-.28.28-.618.393-.955-.113-.393-.056-.955.056-1.292l-.393.45c-.169.055-.337.168-.506-.113.393-.618-.393-.506-.393-.899.618-.337.112-.618.225-1.067-.394.168-.394.618-.787.618-.45-.281.169-.9-.112-1.18-.113.112-.45-.169-.562 0 .28.168.225.674.168.899-.168.056-.337.056-.449-.169 0 0-.056.225-.337.281-.28-.168.169-.618 0-.786-.169.112-.169.168-.393.168-.225-.112-.169-.506-.169-.73-.168.056-.112.112-.28.28-.17.113-.45.282-1.068.057.393-.843.899-.562 1.348-.787.113-.224.506-.561.225-.786-.674.112-.674.842-1.517.73-.28-.618.674-.899.337-1.18 0 0-.618-.337-.618-.168 0 .618-.056 1.067-.562 1.236-.224-.113-.224-.506-.224-.73.168-.45-.394-.225-.337-.9-.113.057-.394.562-.73.394-.17-.056.168-.674.168-.674-.225-.169-.618-.113-.843-.281-.112-.393.45-.337.618-.618-.393-.393-.618.28-1.011 0 0-.056.337-.169.28-.45-.112-.168-.673.113-.673-.112-.057-.169.449-.45.618-.562l-.281-.056c-.562.169-.787-.056-.113-.393-.618-.618.394-.45.674-.618-.842-.169-1.292-.618-1.067-.9.225-.28 1.011.113 1.011.113s-.337-.393-.562-.73c-.224-.393.9-.337 1.124-.843l-.225-.056c-.224 0-.112-.337-.45.112-.168.281-.56.169-.842 0 0-.505.393-.786.843-1.01.73-.17.562-.282.955-.338 0 0-.225-.225-.337-.168-.169.056-.281.056-.281.056-.73.112-1.236.112-1.742-.281.057-.337.562-.281.843-.337-.225-.225-.225-.562-.168-.674.28-.057.674.561.842.674 0 0-.168-.45.113-.674.393.168.224.842.842.786-.505-.674-.337-.786.394-.45.112-.28-.618-.393-.675-.561-.112-.169.45-.393.45-.393s-1.011-.169-1.236-.955c-.056-.338 1.348 0 1.798.73.393.056.505-.056.842-.169-.28-.224-.505-.28-.674-.842l-.168.112s-.113.112-.45 0c-.28-.112-.562-.393-.562-.674.281-.112.843-.225 1.068.168l.056.113c0 .056.112.056.112 0 .45-.113.843.168 1.349-.056-.113-.225-.057-.281-.394-.45-.168.113-.224.113-.449.113-.562-.113-.955-.45-1.18-.956.113-.112.281.113.506 0 .45.057.899.113.955.562.225-.112.337-.337.899-.393-.506-.112-.787-.112-.843-.506.337-.393.899-.168 1.348.169.057 0-.112-.169-.056-.169l-.28-.337c-.17-.224-.057-.505.168-.674.112 0 .28.225.337.506.506.562.056-.506.73-.562.393.45-.168.562-.168.786.056.113.168.225.45.281.055-.28.28-.45.28-.786-.225-.393 0-1.011.562-1.18.505.506-.506 1.067.168 1.18.618-.281-.056-1.011.675-1.348.224.449-.057.674.056.842.056.113.337.169.45.056-.338-.28-.113-.786 0-1.067.224-.056.336.45.28.674.618-.393.056.281.843.225.168-.393-.506-.506-.225-1.124.73-.168.618.337.618.674l.225.338.224-.113s-.168-.112-.224-.562c-.056-.393.505-.674.505-.674v.056c.9 8.484.787 17.079-.505 25.506v.393z" fill="#C7C7C7" fill-rule="nonzero"/><path d="M27.64 33.09a81.012 81.012 0 0 1-.337 1.63l.337-1.63zm6.18 8.82c2.697 0 4.438-2.022 4.438-4.55 0-2.64-1.797-4.439-4.438-4.439-2.696 0-4.494 1.742-4.494 4.439 0 2.64 1.854 4.55 4.494 4.55m10.955-7.135c-.505-.056-1.011-.224-1.517-.224-.898 0-1.516.224-1.516.674 0 .505.842.899 1.797 1.46.9.506 2.135 1.18 2.135 2.64 0 1.63-1.404 2.529-3.54 2.529-.954 0-1.628-.169-2.471-.393v-1.798c.618.225 1.63.562 2.528.562.618 0 1.18-.281 1.18-.843 0-.506-.73-.843-1.742-1.404-.955-.506-2.135-1.461-2.135-2.753 0-1.461 1.461-2.304 3.371-2.304.618 0 1.236.057 1.91.169v1.685z" fill="#FFF" fill-rule="nonzero"/><path d="M31.63 37.36c0-1.573.73-2.64 2.246-2.64 1.461 0 2.191.954 2.191 2.64 0 1.516-.73 2.696-2.19 2.696-1.461 0-2.248-1.123-2.248-2.696" fill="#C7C7C7" fill-rule="nonzero"/><path d="M24.494 35.225c0 .505.843.899 1.798 1.46.169.113.337.225.562.337.168-.73.337-1.516.506-2.247-.506-.056-.787-.168-1.293-.168-.955 0-1.573.168-1.573.618" fill="#AAA" fill-rule="nonzero"/><path d="M22.247 5.674c.113-.168.337.169.337.169" fill="#3B4395" fill-rule="nonzero"/><path d="M7.247 41.63c.056-.956.056-1.686.056-3.034v-4.607c0-1.63-.112-2.922-.337-4.158h2.978c0 .843-.056 2.023-.056 3.315v4.326c0 1.236.168 3.034.337 4.157H7.247zm7.528 3.595c-.168-1.292-.168-2.697-.168-3.146v-1.012c.618.337 1.236.843 2.64.843 2.304 0 3.877-1.798 3.877-4.326 0-2.696-1.63-4.663-3.99-4.663-1.628 0-2.303.787-2.864 1.405-.113-.45-.169-.843-.281-1.18l-2.135.169c.28 1.46.506 2.809.506 4.27v3.482c0 1.236-.225 3.54-.338 4.326l2.753-.168zm-.337-7.64c0-1.686.674-2.866 2.135-2.866 1.348 0 2.247 1.18 2.247 2.865 0 1.46-.73 2.472-2.135 2.472-1.46 0-2.247-.843-2.247-2.472z" fill="#FFF" fill-rule="nonzero"/><path d="M34.438 15.45c-.786.168-1.91-.338-1.741-.45.393-.28 1.292-.73 2.134-.45.169.057.225.225.225.394 0 .505-.337.505-.618.505m2.64.506c-.393-.562-1.123-1.292-.505-2.022.337-.281.45-.45.45-.787.112-1.236.056-1.742-.113-2.416 0-.056.169 0 .225-.224.112-.618-.225-.73-.225-.73.225-.225.225-1.068-.168-1.012.224-.337.056-.955-.338-.786 0 0 .169-.113.169-.394-.056-.505-.786 0-.618-.337.112-.168-.337-.786-.506-.337-.112-.056.113-.393-.112-.45-.112 0-.28.113-.45.225-.056-.224.17-.28-.112-.561-.337-.225-.337.112-.562.224-.449-.112.562-.337-.337-.73-.224.562-.224.169-.337.056-.056-.056-.224.113-.45.393.113-.393.45-.842 0-.73-.505.225-.224-.056-.224-.112.45-.225-.393-.674-.393-.169 0 .337-.73.674-.562.225.112-.506.787.28.225-.674-.337.393-.618.674-.674.786-.281 1.068-.113.113-.394.056.394-.224.843-.674.675-1.01-.394-.057-1.293.617-.73.673-.057.225-.394.45-.563.113.338-.113.9-1.18.169-.843-.056.056-.056.28-.169.45-.168-.17-.056-.394-.112-.506-.562-.506-.337.843-.337 1.123-.73-.449-.056-.337-.225-1.067-.618.112-.73.393-.674 1.067-.056.169-.225.562-.337.057.337-.45.28-1.068-.28-1.068.898 8.483.842 17.023-.45 25.45l-.056.505c.674 0 1.573-.28 2.247-.28 1.966.056 1.91.336 5.168.28.73-.056.955-.224 1.18-.168-.225-1.012-1.854-.45-2.697-.73-1.404-.113-1.629-1.012-2.078-1.63-.225-.337-.506-.786-.506-1.404-.112-.787.056-1.18 0-1.91.056-.562.674-.45 1.068-.394 1.236.113 3.258-.056 3.82-.224.786-.225.786-.73.28-1.461-.112-.337-.112-.562.057-.899.225-.225.505-.393.28-.73 0 0-1.74-.394-.561-.618 1.236-.225.843-.73.843-.73s-.225-.506-.394-.9c-.168-.28 1.012-.393 1.18-.842.45-.506-.45-1.349-.786-1.798" fill="#AAA" fill-rule="nonzero"/><path d="M14.438 37.584c0-1.685.674-2.865 2.135-2.865 1.348 0 2.247 1.18 2.247 2.865 0 1.46-.73 2.472-2.135 2.472-1.46 0-2.247-.843-2.247-2.472z" fill="#AAA"/></g></svg>