<svg width="183" height="34" xmlns="http://www.w3.org/2000/svg" xmlns:xlink="http://www.w3.org/1999/xlink"><defs><path id="a" d="M.209.434h12.286v28.603H.21z"/><path id="c" d="M0 .033h158.164v29.899H0z"/></defs><g fill="none" fill-rule="evenodd"><g transform="translate(44.95)"><mask id="b" fill="#fff"><use xlink:href="#a"/></mask><path d="M3.09 8.827v.2H.209v4.962H3.09v15.048h5.163V13.99h4.242V9.027H8.253v-.2c0-2.482 1.4-3.603 4.242-3.402V.462C6.252.102 3.09 3.183 3.09 8.827" fill="#C7C7C7" mask="url(#b)"/></g><path d="M72.652 23.114c-1.04 1.041-2.361 1.561-3.962 1.561-1.6 0-2.921-.52-3.962-1.56-1.04-1.081-1.56-2.442-1.56-4.082 0-1.642.52-3.003 1.56-4.043 1.04-1.08 2.361-1.6 3.962-1.6 1.6 0 2.921.52 3.962 1.6 1.081 1.04 1.601 2.401 1.601 4.043 0 1.64-.52 3-1.6 4.081zm1.601-11.726c-1.56-1.96-3.722-2.921-6.523-2.921-2.682 0-4.963 1.04-6.884 3.08-1.88 2.042-2.841 4.523-2.841 7.486 0 2.961.96 5.482 2.841 7.523 1.92 2.041 4.202 3.042 6.884 3.042 2.801 0 4.963-.96 6.523-2.921v2.36h5.163V9.027h-5.163v2.361zm18.09 5.523c-2.04-.52-3.642-1.12-3.642-2.201 0-1.001 1-1.641 2.322-1.641 1.48 0 2.561.68 3.201 2.04l4.403-2.4c-1.562-2.722-4.362-4.242-7.604-4.242-2.161 0-3.962.56-5.443 1.72-1.44 1.12-2.161 2.682-2.161 4.643 0 4.162 3.722 5.403 6.683 6.163 2.041.52 3.642 1.12 3.642 2.201 0 1.16-.92 1.721-2.761 1.721-2.041 0-3.322-.88-3.922-2.601l-4.482 2.521c1.48 3.161 4.281 4.763 8.404 4.763 2.281 0 4.202-.56 5.722-1.641 1.561-1.12 2.322-2.722 2.322-4.763.04-4.282-3.762-5.683-6.684-6.283m16.719-13.487l-5.163 1.56v4.043h-3.482v4.962h3.482v8.325c0 5.483 2.601 7.524 9.685 6.723v-4.682c-2.961.16-4.522.12-4.522-2.041v-8.325h4.522V9.027h-4.522V3.424m66.334 19.69c-1.04 1.041-2.36 1.561-3.962 1.561-1.6 0-2.921-.52-3.962-1.56-1.04-1.081-1.56-2.442-1.56-4.082 0-1.642.52-3.003 1.56-4.043 1.04-1.08 2.361-1.6 3.962-1.6s2.922.52 3.962 1.6c1.081 1.04 1.601 2.401 1.601 4.043 0 1.64-.52 3-1.6 4.081zm1.601-14.087v2.361c-1.56-1.96-3.721-2.921-6.523-2.921-2.681 0-4.963 1.04-6.883 3.08-1.882 2.042-2.842 4.523-2.842 7.486 0 2.961.96 5.482 2.842 7.523 1.92 2.041 4.202 3.042 6.883 3.042 2.802 0 4.963-.96 6.523-2.921v2.36h5.163V9.027h-5.163zm-46.243 11.258c0 6.178-8.365 6.178-8.365 0V9.027h-5.163v10.732c0 13.092 18.69 13.092 18.69 0V9.027h-5.162v11.258" fill="#C7C7C7"/><g transform="translate(0 4.034)"><mask id="d" fill="#fff"><use xlink:href="#c"/></mask><path d="M139.474 14.271v10.732h5.162V13.746c0-6.179 8.365-6.179 8.365 0v11.257h5.163V14.271c0-13.093-18.69-13.093-18.69 0M21.595 4.993L18.73.033H13l2.863 4.96h-5.859C4.48 4.993 0 9.473 0 14.998c0 5.526 4.48 10.005 10.005 10.005h3.115l2.865 4.963h5.73l-4.298-7.445 4.296-7.44h-5.73l-2.864 4.96h-3.114a5.042 5.042 0 0 1 0-10.086h17.548l-4.39 7.606h5.73L36.15 4.993H21.595" fill="#C7C7C7" mask="url(#d)"/></g></g></svg>